<?xml version="1.0" encoding="utf-8"?>
<!-- Generator: Adobe Illustrator 19.0.0, SVG Export Plug-In . SVG Version: 6.00 Build 0)  -->
<svg version="1.1" baseProfile="tiny" id="Layer_1" xmlns="http://www.w3.org/2000/svg" xmlns:xlink="http://www.w3.org/1999/xlink"
	 x="0px" y="0px" viewBox="-55 363.5 500 67.5" xml:space="preserve">
<g id="XMLID_97_">
	<path id="XMLID_98_" fill="#242E59" stroke="#245490" stroke-miterlimit="10" d="M93.6,389.5c-3.9,0-7,0.7-9.5,2.2
		c-2.4,1.5-3.6,3.4-3.6,5.6c0,3.3,2.2,5.7,6.7,7c2,0.6,4.2,0.9,6.3,0.9c5.1,0,8.8-1.2,11.2-3.5c1.2-1.1,1.8-2.6,1.8-4.3
		c0-2.4-1.4-4.4-4.1-5.9C100.2,390.2,97.2,389.5,93.6,389.5 M93.6,384.3c6.5,0,11.8,1.2,15.8,3.6s6,5.5,6,9.4c0,4-2,7.1-6,9.5
		s-9.2,3.6-15.8,3.6s-11.8-1.2-15.8-3.6s-6-5.6-6-9.5s2-7.1,6-9.4C81.7,385.5,87,384.3,93.6,384.3"/>
</g>
<g id="XMLID_95_">
	<path id="XMLID_96_" fill="#242E59" stroke="#245490" stroke-miterlimit="10" d="M160.7,407.8c0,1.8-1.2,2.6-3.7,2.7h-17.9
		c-6.5,0-11.8-1.2-15.8-3.6s-6-5.6-6-9.5s2-7.1,6-9.4c4-2.4,9.3-3.7,15.7-3.7h18c2.5,0,3.7,0.8,3.7,2.6c0,1.8-1.2,2.6-3.7,2.6
		l-18.1,0.1c-3.8,0.1-6.9,0.8-9.4,2.3c-2.4,1.5-3.6,3.4-3.6,5.6c0,3.3,2.2,5.7,6.7,7c2,0.6,4,0.9,6.2,0.8h18
		C159.4,405.2,160.7,406.1,160.7,407.8"/>
</g>
<g id="XMLID_93_">
	<path id="XMLID_94_" fill="#242E59" stroke="#245490" stroke-miterlimit="10" d="M310.5,389.4c-3.9,0-7,0.7-9.5,2.2
		c-2.4,1.5-3.6,3.4-3.6,5.6c0,3.3,2.2,5.7,6.7,7c2,0.6,4.2,0.9,6.3,0.9c5.1,0,8.8-1.2,11.2-3.5c1.2-1.1,1.8-2.6,1.8-4.3
		c0-2.4-1.4-4.4-4.1-5.9C317.1,390.1,314.1,389.4,310.5,389.4 M310.5,384.2c6.5,0,11.8,1.2,15.8,3.6s6,5.5,6,9.4c0,4-2,7.1-6,9.5
		s-9.2,3.6-15.8,3.6c-6.5,0-11.8-1.2-15.8-3.6s-6-5.5-6-9.5c0-3.9,2-7.1,6-9.4C298.6,385.4,303.9,384.2,310.5,384.2"/>
</g>
<g id="XMLID_91_">
	<path id="XMLID_92_" fill="#242E59" stroke="#245490" stroke-miterlimit="10" d="M181.5,392.3l-10.7,16.9c-0.5,0.8-1.4,1.2-2.6,1.2
		h-4.4c-1.6-0.1-2.1-0.7-1.5-1.8l15.1-22.9c0.9-1,2.8-1.5,5.7-1.5c2.8,0,4.7,0.5,5.6,1.6l15.5,22.9c0.5,1.1,0.1,1.7-1.5,1.7h-4.4
		c-1.3,0-2.2-0.4-2.7-1.2l-10.9-16.9C183.6,390.5,182.6,390.5,181.5,392.3"/>
</g>
<rect id="XMLID_90_" x="180.2" y="399.9" fill="#242E59" stroke="#245490" stroke-miterlimit="10" width="5.1" height="5.2"/>
<g id="XMLID_88_">
	<path id="XMLID_89_" fill="#242E59" stroke="#245490" stroke-miterlimit="10" d="M70.8,405H43.2c-2.2,0-3.3-0.8-3.4-2.5v-15.6l0,0
		c-0.1-1.6-1.4-2.9-3-3l0,0h-2.6l0,0c-1.7,0.1-3.1,1.5-3.1,3.3v18.5l0.1,0.9c0.1,0.4,0.2,0.9,0.3,1.2l0,0c0.1,0.2,0.2,0.4,0.3,0.6
		c0,0,0,0,0,0.1c0.1,0.2,0.3,0.3,0.4,0.5l0.1,0.1c0.1,0.1,0.3,0.3,0.4,0.4c0.1,0.1,0.2,0.1,0.2,0.1c0.1,0.1,0.3,0.2,0.4,0.2
		c0.1,0.1,0.3,0.1,0.4,0.2c0.1,0,0.2,0.1,0.3,0.1c0.2,0.1,0.5,0.1,0.8,0.2c0,0,0,0,0.1,0s0.1,0,0.2,0c0.2,0,0.4,0,0.6,0h0.1h0.1
		h34.6c2.6,0,4-0.9,4-2.7C74.5,405.9,73.3,405,70.8,405"/>
</g>
<g id="XMLID_86_">
	<path id="XMLID_87_" fill="#242E59" stroke="#245490" stroke-miterlimit="10" d="M348.1,403v-15.8l0,0c-0.1-1.6-1.4-2.9-3-3l0,0
		h-0.2l0,0l0,0h-0.3c-0.3,0-0.5-0.1-0.8-0.1s-0.5,0-0.8,0.1h-0.3l0,0l0,0h-0.1l0,0c-1.7,0.1-3.1,1.5-3.1,3.3v19.9l0,0
		c0.1,1.6,1.4,2.9,3,3l0,0h2.6l0,0c1.7-0.1,3.1-1.5,3.1-3.3L348.1,403z"/>
</g>
<rect id="XMLID_85_" x="405.4" y="384.1" fill="#242E59" stroke="#245490" stroke-miterlimit="10" width="5.1" height="5.2"/>
<g id="XMLID_83_">
	<path id="XMLID_84_" fill="#242E59" stroke="#245490" stroke-miterlimit="10" d="M438,384.1h-18l0,0l0,0c-2.3,0-4.2,1.8-4.3,4.1
		l0,0l0,0v19.1c0.1,1.6,1.4,2.9,3,3l0,0h2.6l0,0c1.7-0.1,3.1-1.5,3.1-3.3v-4.2v-11.5c0.1-1.2,1.1-1.9,2.9-2h10.9
		c2.4,0,3.6-0.9,3.6-2.6C441.8,384.9,440.5,384.1,438,384.1"/>
</g>
<g id="XMLID_81_">
	<path id="XMLID_82_" fill="#242E59" stroke="#245490" stroke-miterlimit="10" d="M399.4,387.3c-0.1-1.6-1.4-2.9-3-3l0,0h-2.6l0,0
		c-1.7,0.1-3.1,1.5-3.1,3.3c0,0,0,11.7,0,11.8c0,0.4-0.2,0.7-0.6,0.8l0,0c-0.1,0-0.1,0-0.2,0s-0.3,0-0.4-0.1c-0.1,0-4.8-3-4.8-3
		l-18.3-11.9c-0.8-0.5-1.6-0.8-2.5-0.9c-0.2-0.1-0.4-0.1-0.6-0.1h-2.6l0,0c-1.7,0.1-3.1,1.5-3.1,3.3v4.2v15.8l0,0
		c0.1,1.6,1.4,2.9,3,3l0,0h2.6c1.7-0.1,3.1-1.5,3.1-3.3V403v-7.8c0-0.3,0.3-0.6,0.5-0.7c0.1,0,0.1,0,0.2,0h0.1h0.1l0,0
		c0.1,0,0.1,0,0.2,0l0,0l23.1,14.9c1.1,0.7,2.5,1.1,3.9,1.1c0,0,2.2,0,2.3,0c1.5-0.3,2.7-1.9,2.7-3.5v-4.2l0,0v-11.4L399.4,387.3z"
		/>
</g>
<g id="XMLID_79_">
	<path id="XMLID_80_" fill="#242E59" stroke="#245490" stroke-miterlimit="10" d="M251.8,394.7v-3.3l0.1-0.8
		c0.3-0.8,1.3-1.2,2.8-1.2h18.1c0.9,0,1.7,0,2.2,0c1.3,0,2.5,0.6,2.5,2.6s-1.2,2.6-2.6,2.6c-0.7,0-1.5,0-2.2,0 M284.2,387.3
		c-2.3-1.9-5-3-11.3-3h-24h-2.6l0,0c-1.7,0.1-3.1,1.5-3.1,3.3v17.6h-25.5c-1.3,0-2.3-0.3-2.8-0.9c-0.3-0.4-0.4-0.9-0.5-1.5v-15.5
		l0,0c-0.1-1.6-1.4-2.9-3-3l0,0h-0.2H209h-0.2l0,0c-1.7,0.1-3.1,1.5-3.1,3.3c0,0.2,0,0.7,0,0.8v17.4v0.7l0,0c0,0.5,0.2,1,0.4,1.5
		l0,0c0.1,0.2,0.2,0.4,0.4,0.6c0,0,0,0,0,0.1c0.1,0.2,0.3,0.3,0.4,0.5l0.1,0.1c0.1,0.1,0.3,0.3,0.4,0.4s0.2,0.1,0.2,0.1
		c0.1,0.1,0.3,0.2,0.4,0.2c0.1,0.1,0.3,0.1,0.4,0.2c0.1,0,0.2,0.1,0.3,0.1c0.2,0.1,0.5,0.1,0.8,0.2c0.2,0,0.4,0,0.6,0
		c0.1,0,0.1,0,0.2,0h0.1h0.1h0.1l36.8-0.1c2.4,0,4.3-2,4.3-4.4v-6.1l19.9,0.1c0,0,6.1,0.4,9.8-1.4c3-1.4,5.1-4,5.1-6.5
		C286.5,390.2,285.5,388.5,284.2,387.3"/>
</g>
<g id="XMLID_77_">
	<path id="XMLID_78_" fill="#DE348B" d="M-39.3,410.7c2-2,5.2-2,7.2,0c-7.3-7.3-7.3-19.3-0.1-26.7c-2,2-5.2,2-7.2,0s-2-5.3,0-7.3
		c-11.1,11.4-11.1,29.9,0.2,41.2C-41.2,415.9-41.2,412.7-39.3,410.7"/>
</g>
<g id="XMLID_75_">
	<path id="XMLID_76_" fill="#F4E128" d="M-5.8,417.8c-2-2-2-5.3,0-7.3c-7.2,7.4-19,7.4-26.3,0.1c2,2,2,5.3,0,7.3c-2,2-5.2,2-7.2,0
		c11.3,11.3,29.5,11.3,40.6-0.1C-0.6,419.8-3.8,419.8-5.8,417.8"/>
</g>
<g id="XMLID_73_">
	<path id="XMLID_74_" fill="#242E59" d="M1.2,383.9c-2,2-5.2,2-7.2,0c7.3,7.3,7.3,19.3,0.1,26.7c2-2,5.2-2,7.2,0s2,5.3,0,7.3
		c11.2-11.4,11.1-29.9-0.1-41.2C3.2,378.6,3.2,381.8,1.2,383.9"/>
</g>
<g id="XMLID_71_">
	<path id="XMLID_72_" fill="#40A3D6" d="M-32.2,376.7c2,2,2,5.3,0,7.3c7.2-7.4,19-7.4,26.3-0.1c-2-2-2-5.3,0-7.3s5.2-2,7.2,0
		c-11.3-11.3-29.5-11.3-40.7,0.1C-37.4,374.7-34.2,374.7-32.2,376.7"/>
</g>
<g id="XMLID_69_">
	<path id="XMLID_70_" fill="#242E59" stroke="#245490" stroke-miterlimit="10" d="M93.6,389.5c-3.9,0-7,0.7-9.5,2.2
		c-2.4,1.5-3.6,3.4-3.6,5.6c0,3.3,2.2,5.7,6.7,7c2,0.6,4.2,0.9,6.3,0.9c5.1,0,8.8-1.2,11.2-3.5c1.2-1.1,1.8-2.6,1.8-4.3
		c0-2.4-1.4-4.4-4.1-5.9C100.2,390.2,97.2,389.5,93.6,389.5 M93.6,384.3c6.5,0,11.8,1.2,15.8,3.6s6,5.5,6,9.4c0,4-2,7.1-6,9.5
		s-9.2,3.6-15.8,3.6s-11.8-1.2-15.8-3.6s-6-5.6-6-9.5s2-7.1,6-9.4C81.7,385.5,87,384.3,93.6,384.3"/>
</g>
<g id="XMLID_67_">
	<path id="XMLID_68_" fill="#242E59" stroke="#245490" stroke-miterlimit="10" d="M160.7,407.8c0,1.8-1.2,2.6-3.7,2.7h-17.9
		c-6.5,0-11.8-1.2-15.8-3.6s-6-5.6-6-9.5s2-7.1,6-9.4c4-2.4,9.3-3.7,15.7-3.7h18c2.5,0,3.7,0.8,3.7,2.6c0,1.8-1.2,2.6-3.7,2.6
		l-18.1,0.1c-3.8,0.1-6.9,0.8-9.4,2.3c-2.4,1.5-3.6,3.4-3.6,5.6c0,3.3,2.2,5.7,6.7,7c2,0.6,4,0.9,6.2,0.8h18
		C159.4,405.2,160.7,406.1,160.7,407.8"/>
</g>
<g id="XMLID_65_">
	<path id="XMLID_66_" fill="#242E59" stroke="#245490" stroke-miterlimit="10" d="M310.5,405.1c5.1,0,8.8-1.2,11.2-3.5
		c1.2-1.1,1.8-2.6,1.8-4.3c0-2.4-1.4-4.4-4.1-5.9c-2.4-1.3-5.3-2-9-2c-3.9,0-7,0.7-9.5,2.2c-2.4,1.5-3.6,3.4-3.6,5.6
		c0,3.3,2.2,5.7,6.7,7 M310.5,384.2c6.5,0,11.8,1.2,15.8,3.6s6,5.5,6,9.4c0,4-2,7.1-6,9.5s-9.2,3.6-15.8,3.6
		c-6.5,0-11.8-1.2-15.8-3.6s-6-5.6-6-9.5s2-7.1,6-9.4C298.6,385.4,303.9,384.2,310.5,384.2"/>
</g>
<g id="XMLID_63_">
	<path id="XMLID_64_" fill="#242E59" stroke="#245490" stroke-miterlimit="10" d="M181.5,392.3l-10.7,16.9c-0.5,0.8-1.4,1.2-2.6,1.2
		h-4.4c-1.6-0.1-2.1-0.7-1.5-1.8l15.1-22.9c0.9-1,2.8-1.5,5.7-1.5c2.8,0,4.7,0.5,5.6,1.6l15.5,22.9c0.5,1.1,0.1,1.7-1.5,1.7h-4.4
		c-1.3,0-2.2-0.4-2.7-1.2l-10.9-16.9C183.6,390.5,182.6,390.5,181.5,392.3"/>
</g>
<rect id="XMLID_62_" x="180.2" y="399.9" fill="#242E59" stroke="#245490" stroke-miterlimit="10" width="5.1" height="5.2"/>
<g id="XMLID_60_">
	<path id="XMLID_61_" fill="#242E59" stroke="#245490" stroke-miterlimit="10" d="M70.8,405H43.2c-2.2,0-3.3-0.8-3.4-2.5v-15.6l0,0
		c-0.1-1.6-1.4-2.9-3-3l0,0h-2.6l0,0c-1.7,0.1-3.1,1.5-3.1,3.3v18.5l0.1,0.9c0.1,0.4,0.2,0.9,0.3,1.2l0,0c0.1,0.2,0.2,0.4,0.3,0.6
		c0,0,0,0,0,0.1c0.1,0.2,0.3,0.3,0.4,0.5l0.1,0.1c0.1,0.1,0.3,0.3,0.4,0.4c0.1,0.1,0.2,0.1,0.2,0.1c0.1,0.1,0.3,0.2,0.4,0.2
		c0.1,0.1,0.3,0.1,0.4,0.2c0.1,0,0.2,0.1,0.3,0.1c0.2,0.1,0.5,0.1,0.8,0.2c0,0,0,0,0.1,0s0.1,0,0.2,0c0.2,0,0.4,0,0.6,0h0.1h0.1
		h34.6c2.6,0,4-0.9,4-2.7C74.5,405.9,73.3,405,70.8,405"/>
</g>
<g id="XMLID_58_">
	<path id="XMLID_59_" fill="#242E59" stroke="#245490" stroke-miterlimit="10" d="M348.1,403v-15.8l0,0c-0.1-1.6-1.4-2.9-3-3l0,0
		h-0.2l0,0l0,0h-0.3c-0.3,0-0.5-0.1-0.8-0.1s-0.5,0-0.8,0.1h-0.3l0,0l0,0h-0.1l0,0c-1.7,0.1-3.1,1.5-3.1,3.3v19.9l0,0
		c0.1,1.6,1.4,2.9,3,3l0,0h2.6l0,0c1.7-0.1,3.1-1.5,3.1-3.3L348.1,403z"/>
</g>
<rect id="XMLID_57_" x="405.4" y="384.1" fill="#242E59" stroke="#245490" stroke-miterlimit="10" width="5.1" height="5.2"/>
<g id="XMLID_55_">
	<path id="XMLID_56_" fill="#242E59" stroke="#245490" stroke-miterlimit="10" d="M438,384.1h-18l0,0l0,0c-2.3,0-4.2,1.8-4.3,4.1
		l0,0l0,0v19.1c0.1,1.6,1.4,2.9,3,3l0,0h2.6l0,0c1.7-0.1,3.1-1.5,3.1-3.3v-4.2v-11.5c0.1-1.2,1.1-1.9,2.9-2h10.9
		c2.4,0,3.6-0.9,3.6-2.6C441.8,384.9,440.5,384.1,438,384.1"/>
</g>
<g id="XMLID_53_">
	<path id="XMLID_54_" fill="#242E59" stroke="#245490" stroke-miterlimit="10" d="M399.4,387.3c-0.1-1.6-1.4-2.9-3-3l0,0h-2.6l0,0
		c-1.7,0.1-3.1,1.5-3.1,3.3c0,0,0,11.7,0,11.8c0,0.4-0.2,0.7-0.6,0.8l0,0c-0.1,0-0.1,0-0.2,0s-0.3,0-0.4-0.1c-0.1,0-4.8-3-4.8-3
		l-18.3-11.9c-0.8-0.5-1.6-0.8-2.5-0.9c-0.2-0.1-0.4-0.1-0.6-0.1h-2.6l0,0c-1.7,0.1-3.1,1.5-3.1,3.3v4.2v15.8l0,0
		c0.1,1.6,1.4,2.9,3,3l0,0h2.6c1.7-0.1,3.1-1.5,3.1-3.3V403v-7.8c0-0.3,0.3-0.6,0.5-0.7c0.1,0,0.1,0,0.2,0h0.1h0.1l0,0
		c0.1,0,0.1,0,0.2,0l0,0l23.1,14.9c1.1,0.7,2.5,1.1,3.9,1.1c0,0,2.2,0,2.3,0c1.5-0.3,2.7-1.9,2.7-3.5v-4.2l0,0v-11.4L399.4,387.3z"
		/>
</g>
<line fill="#242E59" stroke="#245490" stroke-miterlimit="10" x1="251.2" y1="394.6" x2="272.8" y2="394.6"/>
</svg>
